<svg xmlns="http://www.w3.org/2000/svg" viewBox="0 0 24 24" width="24" height="24" fill="none" stroke="currentColor">
  <!-- Outer circle track -->
  <circle cx="12" cy="12" r="9.5" stroke="currentColor" stroke-width="1.3" opacity="0.9"/>
  <!-- Brain cortex left -->
  <path d="M 12 5.5 C 9.8 5.5 8 7 8 8.8 C 7.2 9.2 6.5 10.2 6.5 11.5 C 6.5 12.5 7 13.3 7.6 14 C 7 14.7 6.6 15.6 6.6 16.5 C 6.6 17.8 7.6 18.8 8.8 19" stroke="currentColor" stroke-width="1.2" stroke-linecap="round"/>
  <!-- Brain cortex right -->
  <path d="M 12 5.5 C 14.2 5.5 16 7 16 8.8 C 16.8 9.2 17.5 10.2 17.5 11.5 C 17.5 12.5 17 13.3 16.4 14 C 17 14.7 17.4 15.6 17.4 16.5 C 17.4 17.8 16.4 18.8 15.2 19" stroke="currentColor" stroke-width="1.2" stroke-linecap="round"/>
  <!-- Central dividing line -->
  <line x1="12" y1="6.5" x2="12" y2="18" stroke="currentColor" stroke-width="1.1" stroke-dasharray="1.5 1"/>
  <!-- Circuit nodes & traces -->
  <circle cx="9.5" cy="10" r="0.9" fill="currentColor"/>
  <line x1="9.5" y1="10" x2="12" y2="10" stroke="currentColor" stroke-width="1"/>
  <circle cx="14.5" cy="10" r="0.9" fill="currentColor"/>
  <line x1="14.5" y1="10" x2="12" y2="10" stroke="currentColor" stroke-width="1"/>
  <circle cx="9.2" cy="14" r="0.9" fill="currentColor"/>
  <line x1="9.2" y1="14" x2="12" y2="14" stroke="currentColor" stroke-width="1"/>
  <circle cx="14.8" cy="14" r="0.9" fill="currentColor"/>
  <line x1="14.8" y1="14" x2="12" y2="14" stroke="currentColor" stroke-width="1"/>
</svg>